{"title":"Case 39.BRrip.2009.MKV.AC-3-5.1","uid":14611907,"size":3465062600,"categoryP":"video","categoryS":"movies","magnet":"?xt=urn:btih:6ea1e29d9fdb2d3958ce5a5e5def8f031a62d2da&amp;dn=Case+39.BRrip.2009.MKV.AC-3-5.1&amp;tr=udp%3A%2F%2Ftracker.leechers-paradise.org%3A6969&amp;tr=udp%3A%2F%2Fzer0day.ch%3A1337&amp;tr=udp%3A%2F%2Fopen.demonii.com%3A1337&amp;tr=udp%3A%2F%2Ftracker.coppersurfer.tk%3A6969&amp;tr=udp%3A%2F%2Fexodus.desync.com%3A6969","seeders":0,"leechers":1,"uploader":"Ronnie1964","files":2,"time":1463160239,"description":"General\r\nUnique ID                   : 226230675486928198325630362802822431091 (0xAA327177410A7D528147B1899F8DC173)\r\nComplete name               : E:MoviesCase 39 - BRrip {AC-3 5.1] (Horror Thriller 2009).mkv\r\nFormat                      : Matroska\r\nFormat version              : Version 4 / Version 2\r\nFile size                   : 3.23 GiB\r\nDuration                    : 1h 49mn\r\nOverall bit rate            : 4 223 Kbps\r\nMovie name                  : CASE_39.Title7\r\nEncoded date                : UTC 2016-05-13 14:52:43\r\nWriting application         : mkvmerge v7.9.0 ('Birds') 32bit\r\nWriting library             : libebml v1.3.1 + libmatroska v1.4.2\r\n\r\nVideo\r\nID                          : 1\r\nFormat                      : AVC\r\nFormat/Info                 : Advanced Video Codec\r\nFormat profile              :   \r\nFormat settings, CABAC      : Yes\r\nFormat settings, ReFrames   : 2 frames\r\nCodec ID                    : V_MPEG4/ISO/AVC\r\nDuration                    : 1h 49mn\r\nBit rate                    : 3 775 Kbps\r\nWidth                       : 1 920 pixels\r\nHeight                      : 820 pixels\r\nDisplay aspect ratio        : 2.35:1\r\nFrame rate mode             : Constant\r\nFrame rate                  : 23.976 (24000/1001) fps\r\nColor space                 : YUV\r\nChroma subsampling          : 4:2:0\r\nBit depth                   : 8 bits\r\nScan type                   : Progressive\r\nBits/(Pixel*Frame)          : 0.100\r\nStream size                 : 2.88 GiB (89%)\r\nWriting library             : x264 core 142\r\nEncoding settings           : cabac=1 / ref=1 / deblock=1:-1:-1 / analyse=0x3:0 / me=hex / subme=5 / psy=0 / mixed_ref=0 / me_range=16 / chroma_me=1 / trellis=0 / 8x8dct=1 / cqm=0 / deadzone=21,11 / fast_pskip=1 / chroma_qp_offset=0 / threads=4 / lookahead_threads=1 / sliced_threads=0 / nr=0 / decimate=1 / interlaced=0 / bluray_compat=0 / constrained_intra=0 / bframes=2 / b_pyramid=0 / b_adapt=1 / b_bias=0 / direct=1 / weightb=1 / open_gop=0 / weightp=0 / keyint=24 / keyint_min=13 / scenecut=40 / intra_refresh=0 / rc=2pass / mbtree=0 / bitrate=3775 / ratetol=1.0 / qcomp=0.60 / qpmin=0 / qpmax=69 / qpstep=4 / cplxblur=20.0 / qblur=0.5 / ip_ratio=1.40 / pb_ratio=1.30 / aq=1:1.00\r\nDefault                     : Yes\r\nForced                      : No\r\nColor range                 : Limited\r\nColor primaries             : BT.709\r\nTransfer characteristics    : BT.709\r\nMatrix coefficients         : BT.709\r\n\r\nAudio\r\nID                          : 2\r\nFormat                      : AC-3\r\nFormat/Info                 : Audio Coding 3\r\nMode extension              : CM (complete main)\r\nFormat settings, Endianness : Big\r\nCodec ID                    : A_AC3\r\nDuration                    : 1h 49mn\r\nBit rate mode               : Constant\r\nBit rate                    : 448 Kbps\r\nChannel(s)                  : 6 channels\r\nChannel positions           : Front: L C R, Side: L R, LFE\r\nSampling rate               : 48.0 KHz\r\nFrame rate                  : 31.250 fps (1536 spf)\r\nCompression mode            : Lossy\r\nStream size                 : 351 MiB (11%)\r\nLanguage                    : English\r\nDefault                     : Yes\r\nForced                      : No\r\n\r\nMenu\r\n00:00:00.000                : en:(01)00:00:00:000\r\n00:06:32.725                : en:(02)00:06:32:725\r\n00:17:14.324                : en:(03)00:17:14:324\r\n00:26:27.919                : en:(04)00:26:27:919\r\n00:34:46.084                : en:(05)00:34:46:084\r\n00:40:31.095                : en:(06)00:40:31:095\r\n00:49:25.545                : en:(07)00:49:25:545\r\n00:55:34.205                : en:(08)00:55:34:205\r\n01:00:05.184                : en:(09)01:00:05:184\r\n01:06:29.068                : en:(10)01:06:29:068\r\n01:12:35.601                : en:(11)01:12:35:601\r\n01:20:51.263                : en:(12)01:20:51:263\r\n01:27:50.348                : en:(13)01:27:50:348\r\n01:38:49.214                : en:(14)01:38:49:214\r\n01:44:31.640                : en:(15)01:44:31:640\r\n\r\nAdded Dutch subtitles","torrent":{"xt":"urn:btih:6ea1e29d9fdb2d3958ce5a5e5def8f031a62d2da","amp;dn":"Case+39.BRrip.2009.MKV.AC-3-5.1","amp;tr":["udp%3A%2F%2Ftracker.leechers-paradise.org%3A6969","udp%3A%2F%2Fzer0day.ch%3A1337","udp%3A%2F%2Fopen.demonii.com%3A1337","udp%3A%2F%2Ftracker.coppersurfer.tk%3A6969","udp%3A%2F%2Fexodus.desync.com%3A6969"],"infoHash":"6ea1e29d9fdb2d3958ce5a5e5def8f031a62d2da","infoHashBuffer":{"type":"Buffer","data":[110,161,226,157,159,219,45,57,88,206,90,94,93,239,143,3,26,98,210,218]},"announce":[],"urlList":[]}}